<svg width="566" height="108" viewBox="0 0 566 108" fill="none" xmlns="http://www.w3.org/2000/svg">
<g clip-path="url(#clip0_131_4)">
<path d="M297.505 56.1691L287.513 45.6285L271.342 62.4187L265.511 56.3122L292.44 28.1121L282.417 17.6154L255.487 45.8155L249.541 39.588L276.47 11.3879L266.446 0.880219L255.477 12.3561L244.518 0.880219L234.495 11.3879L245.453 22.8637L239.506 29.0803L228.548 17.6154L218.524 28.1121L261.277 72.8823L255.309 79.0769L223.557 45.8265L213.533 56.3342L248.395 92.8413V106.826H262.58V92.4452L297.505 56.1691Z" fill="#F39200"/>
<path d="M0 106.826V0.957245H18.9546V106.837H0V106.826Z" fill="white"/>
<path d="M26.8243 0.957245H56.9583C61.7495 0.957245 65.4584 2.09053 68.0852 4.3681C70.7119 6.63467 72.4771 9.82547 73.3912 13.9295C74.3053 18.0335 74.7571 23.2709 74.7571 29.6525C74.7571 35.4729 74.0321 40.0171 72.5927 43.2849C71.1427 46.5527 68.6315 48.8303 65.0592 50.0956C68.0221 50.7338 70.176 52.2852 71.5104 54.7608C72.8448 57.2364 73.5068 60.5812 73.5068 64.8063L73.2756 106.848H54.1004V63.497C54.1004 60.6253 53.5645 58.7988 52.5033 57.9956C51.4316 57.2034 49.4983 56.7963 46.6825 56.7963V106.848H26.8138V0.957245H26.8243ZM51.4841 38.9718C54.2265 38.9718 55.5924 35.858 55.5924 29.6415C55.5924 26.9348 55.4768 24.8993 55.2456 23.5459C55.0145 22.1926 54.5942 21.2573 53.9953 20.7402C53.3859 20.2231 52.5138 19.959 51.3686 19.959H46.798V38.9718H51.4736H51.4841Z" fill="white"/>
<path d="M382.716 0.957245H412.85C417.641 0.957245 421.35 2.09053 423.977 4.3681C426.604 6.63467 428.369 9.82547 429.283 13.9295C430.197 18.0335 430.649 23.2709 430.649 29.6525C430.649 35.4729 429.924 40.0171 428.485 43.2849C427.035 46.5527 424.524 48.8303 420.951 50.0956C423.914 50.7338 426.068 52.2852 427.402 54.7608C428.737 57.2364 429.399 60.5812 429.399 64.8063L429.168 106.848H409.992V63.497C409.992 60.6253 409.457 58.7988 408.395 57.9956C407.324 57.2034 405.39 56.7963 402.574 56.7963V106.848H382.706V0.957245H382.716ZM407.376 38.9718C410.119 38.9718 411.484 35.858 411.484 29.6415C411.484 26.9348 411.369 24.8993 411.138 23.5459C410.907 22.1926 410.486 21.2573 409.887 20.7402C409.278 20.2231 408.406 19.959 407.261 19.959H402.69V38.9718H407.366H407.376Z" fill="white"/>
<path d="M86.6405 100.136C82.5323 95.0749 80.4729 87.9671 80.4729 78.8018V26.7807C80.4729 17.9345 82.5323 11.2558 86.6405 6.7557C90.7487 2.25557 96.7587 0 104.681 0C112.603 0 118.613 2.25557 122.721 6.7557C126.83 11.2558 128.889 17.9345 128.889 26.7807V78.8018C128.889 88.0441 126.83 95.1849 122.721 100.202C118.613 105.219 112.603 107.728 104.681 107.728C96.7587 107.728 90.7487 105.197 86.6405 100.136ZM108.222 86.4487C108.831 84.8533 109.136 82.6198 109.136 79.7591V26.4176C109.136 24.1841 108.852 22.3686 108.285 20.9823C107.717 19.5849 106.551 18.8918 104.807 18.8918C101.529 18.8918 99.9003 21.4884 99.9003 26.6597V79.8801C99.9003 82.8288 100.247 85.0624 100.93 86.5698C101.613 88.0882 102.874 88.8363 104.702 88.8363C106.53 88.8363 107.633 88.0441 108.243 86.4487H108.222Z" fill="white"/>
<path d="M136.759 106.826V0.957245H156.964L165.979 50.0956V0.957245H184.933V106.837H165.758L155.944 52.2521V106.837H136.769L136.759 106.826Z" fill="white"/>
<path d="M331.117 99.8941C327.649 94.6788 325.926 86.7678 325.926 76.1612V28.8052C325.926 19.3209 327.944 12.1471 331.978 7.28383C336.013 2.42061 342.023 -0.0110016 350.019 -0.0110016C356.491 -0.0110016 361.513 1.34234 365.086 4.04902C368.658 6.7557 371.138 10.7057 372.504 15.888C373.87 21.0703 374.563 27.727 374.563 35.847H355.388V26.6377C355.388 24.1731 355.062 22.2586 354.421 20.9053C353.77 19.5519 352.614 18.8697 350.943 18.8697C347.213 18.8697 345.354 21.4224 345.354 26.5167V79.374C345.354 82.4767 345.732 84.8313 346.499 86.4267C347.255 88.0221 348.59 88.8143 350.492 88.8143C352.393 88.8143 353.728 88.0221 354.484 86.4267C355.241 84.8313 355.629 82.4767 355.629 79.374V64.6743H350.376V46.9818H374.353V106.76H366.473L363.163 98.1557C359.664 104.537 354.264 107.717 346.951 107.717C339.638 107.717 334.605 105.109 331.138 99.8831L331.117 99.8941Z" fill="white"/>
<path d="M433.917 106.826L443.394 0.957245H476.617L485.979 106.837H467.371L466.005 87.0319H454.132L452.987 106.837H433.927L433.917 106.826ZM455.603 70.6488H464.503L460.163 18.4076H459.249L455.593 70.6488H455.603Z" fill="white"/>
<path d="M490.991 106.826V0.957245H509.945V106.837H490.991V106.826Z" fill="white"/>
<path d="M490.991 106.826V0.957245H509.945V106.837H490.991V106.826Z" fill="white" fill-opacity="0.2"/>
<path d="M517.815 106.826V0.957245H538.02L547.035 50.0956V0.957245H565.99V106.837H546.814L537.001 52.2521V106.837H517.826L517.815 106.826Z" fill="white"/>
</g>
<defs>
<clipPath id="clip0_131_4">
<rect width="566" height="107.728" fill="white"/>
</clipPath>
</defs>
</svg>
